<svg id="svg" version="1.1" viewBox="73 52 145 188" width="145" height="188" xmlns="http://www.w3.org/2000/svg">
  <defs>
    <clipPath id="clip-1">
      <rect x="0" y="0" transform="scale(0.14646,0.14648)" width="1988" height="2048" fill="none"/>
    </clipPath>
  </defs>
  <g clip-path="url(#clip-1)" fill="none" fill-rule="nonzero" stroke="none" stroke-width="1" style="mix-blend-mode: normal">
    <path d="M145.67092,57.92314c5.29929,-0.39346 10.87803,6.74062 14.33747,9.66987c2.42688,2.05371 7.23816,5.57681 9.92574,7.32451c5.90389,3.83892 14.57151,7.2665 21.382,9.00703c2.69637,0.68906 6.89983,1.20146 9.70019,1.673c3.27196,0.55093 7.14442,0.5729 10.42078,1.22769c2.14713,0.42891 3.22363,1.82886 5.43521,2.44321c2.3844,4.7001 1.54078,12.37002 1.52028,17.64141l0.00879,21.99624c0.10838,11.95928 0.07762,23.92983 -0.09374,35.88882c-0.00732,0.57422 -0.07177,1.22168 -0.12449,1.79736c-1.42801,15.96094 -7.66583,30.12451 -18.39271,42.0249c-10.29189,11.29541 -25.1534,19.54395 -38.83589,26.11377c-2.75788,1.32568 -12.32625,4.77832 -14.95774,4.97314c-3.26991,-0.14941 -7.2427,-1.97168 -10.38739,-3.13623c-8.47269,-3.20947 -17.0766,-7.45166 -24.71885,-12.30762c-6.71192,-4.26416 -13.16943,-9.69434 -18.68549,-15.38818c-1.63056,-1.68164 -2.55005,-3.03516 -3.9454,-4.78271c-2.24321,-2.80957 -4.13726,-5.38623 -5.78262,-8.59863c-4.96477,-8.10791 -7.92023,-17.75977 -8.87721,-27.20361c-0.52785,-5.20898 -0.78694,-10.85596 -0.77698,-16.0957c0.00791,-2.30566 0.30274,-4.7373 0.34726,-7.0998l0.20856,-21.9375c0.08641,-8.89497 -0.33906,-17.98213 0.00117,-26.87988c0.1658,-1.70508 0.56857,-5.18804 1.8444,-6.45059c5.5679,-5.51016 14.16669,-3.47476 21.18047,-5.08813c8.41454,-1.93579 16.55637,-4.56826 24.00792,-8.96704c7.52962,-4.44478 13.79585,-10.13394 20.08596,-16.1127c1.21593,-1.15327 3.50293,-1.60752 5.17231,-1.73262z" fill="#000000"/>
    <path d="M143.67962,233.99268c-22.96526,-8.04639 -47.84463,-21.56104 -58.84657,-44.45361c-3.02268,-6.18164 -5.03097,-12.81152 -5.94753,-19.63184c-0.3518,-2.64551 -0.57633,-5.30566 -0.67299,-7.97314c-0.11307,-3.97266 -0.02651,-8.31592 -0.02534,-12.30762l0.01142,-22.78433l-0.00059,-18.14766c-0.00015,-3.16875 -0.40643,-11.79126 0.46253,-14.38491c0.35517,-1.0604 1.37601,-1.85757 2.37122,-2.30273c1.41834,-0.63442 8.98867,-1.13936 11.00531,-1.40947c11.20699,-1.50161 21.89652,-5.05269 31.5973,-10.89551c5.35114,-3.2231 10.20372,-7.01909 14.89022,-11.13589c1.76165,-1.54746 3.61893,-4.09556 5.59324,-5.2418c0.9482,-0.55049 2.29199,-0.43315 3.26845,-0.01846c1.67699,0.71279 5.78086,5.24282 7.65118,6.83979c8.77015,7.48784 18.40003,13.46367 29.42277,17.04214c5.53187,1.79575 11.44162,2.93848 17.20344,3.69258c1.93037,0.25269 7.4725,0.41675 8.88586,0.95273c0.89928,0.34087 2.19693,1.57661 2.5294,2.47808c0.21091,0.57612 0.33979,1.17861 0.38666,1.79019c0.19626,2.52905 0.04101,7.70933 0.03954,10.38706l-0.00586,20.31914l0.00439,22.64912c0.00293,3.97998 0.09374,8.30127 -0.00732,12.25781c-0.06298,2.4375 -0.2402,4.87061 -0.53019,7.29199c-0.82751,6.84082 -2.72273,13.51025 -5.61682,19.76367c-10.91875,23.13721 -35.86418,36.95508 -58.98615,45.11572c-0.22555,0.08057 -0.45257,0.1582 -0.68105,0.23291c-1.58487,0.35156 -2.47008,0.30029 -4.00252,-0.12598z" fill="#60d32c"/>
    <path d="M144.17671,73.4417c2.194,-0.21387 3.33553,-0.31685 5.21317,1.02612c2.2892,1.69966 4.72047,4.11973 7.2821,6.03765c9.45999,7.22754 20.27036,12.48838 31.79399,15.47271c2.34632,0.60396 4.7234,1.08369 7.12099,1.43716c4.7937,0.70796 10.21134,0.76831 10.33437,7.24189c0.06737,3.54258 0.01758,7.10376 0.01465,10.64824l-0.01318,20.61035l0.00146,17.56318c0,2.63672 0.12156,6.54346 -0.0454,9.09375c-0.2856,4.99658 -1.15559,9.94336 -2.59384,14.73633c-4.18296,13.57764 -13.19038,24.37646 -24.73599,32.33936c-3.50923,2.41992 -6.07085,4.21436 -9.89644,6.21973c-5.15986,2.77441 -10.42371,5.28223 -15.90871,7.34473c-3.60443,1.35645 -6.04449,2.6748 -9.93555,1.40918c-2.97318,-0.96533 -5.6177,-2.12549 -8.49861,-3.33984c-16.70869,-7.0459 -32.95558,-17.729 -41.77641,-34.06787c-3.49942,-6.52441 -5.20643,-12.80713 -6.22317,-20.07715c-0.28106,-2.05078 -0.44759,-4.11475 -0.49885,-6.18311c-0.12464,-4.48389 -0.06093,-9.22266 -0.06254,-13.72705l0.00293,-22.77979c0.00454,-3.50947 -0.32895,-20.15698 0.3455,-22.06802c1.69105,-4.79106 7.58952,-4.43057 11.70218,-5.19478c13.27782,-2.46753 25.59103,-8.20181 36.47507,-16.12207c2.99222,-2.17749 6.7891,-6.20464 9.9023,-7.6207z" fill="#000000"/>
    <path d="M144.17671,73.4417c2.194,-0.21387 3.33553,-0.31685 5.21317,1.02612c-1.20978,-0.0208 -4.05861,-0.61714 -5.21317,-1.02612z" fill="#000e00"/>
    <path d="M145.80947,78.46348c1.73353,0.94717 5.11094,4.37256 6.92268,5.75918c11.56904,8.85996 24.57927,15.07017 38.93109,17.81807c1.242,0.23789 8.27657,1.35264 8.8551,1.73511c0.22848,1.52886 0.13035,5.42915 0.13035,7.13833l-0.00586,13.90913l0.00586,24.37104c0.00146,6.95215 0.3354,13.25391 -0.90367,20.1167c-1.15412,6.38672 -3.49605,12.49951 -6.90422,18.02197c-7.9236,13.01367 -21.07883,21.51123 -34.63389,27.79688c-3.48287,1.61572 -8.63248,3.84814 -12.29857,4.7373c-1.33266,0.1084 -7.87058,-2.75391 -9.30503,-3.36914c-13.44859,-5.7627 -25.57184,-13.09277 -34.66802,-24.7749c-4.68825,-6.09814 -7.96871,-13.15869 -9.60557,-20.67627c-0.63872,-3.0498 -1.03651,-6.14502 -1.18927,-9.25781c-0.19245,-4.0415 -0.05448,-9.19922 -0.05331,-13.29639l0.00395,-24.78662l-0.01084,-13.16836c-0.00073,-1.99175 -0.06547,-4.21567 0.09989,-6.20083c0.00498,-0.4333 0.34829,-0.8083 0.78826,-0.8707c5.88573,-0.83306 11.53125,-1.96377 17.23551,-3.71411c10.66801,-3.28066 20.64925,-8.47764 29.45485,-15.33647c2.54595,-1.95234 4.76632,-4.10625 7.15072,-5.9521z" fill="#60d32c"/>
  </g>
</svg>
